<?xml version="1.0" encoding="UTF-8" standalone="no"?>
<!-- Created with Inkscape (http://www.inkscape.org/) -->

<svg
   xmlns:dc="http://purl.org/dc/elements/1.1/"
   xmlns:cc="http://creativecommons.org/ns#"
   xmlns:rdf="http://www.w3.org/1999/02/22-rdf-syntax-ns#"
   xmlns:svg="http://www.w3.org/2000/svg"
   xmlns="http://www.w3.org/2000/svg"
   xmlns:sodipodi="http://sodipodi.sourceforge.net/DTD/sodipodi-0.dtd"
   xmlns:inkscape="http://www.inkscape.org/namespaces/inkscape"
   width="8.7037077mm"
   height="9.2605438mm"
   viewBox="0 0 8.7037077 9.2605438"
   version="1.1"
   id="svg4741"
   inkscape:version="0.92.1 r15371"
   sodipodi:docname="calendar.svg">
  <defs
     id="defs4735" />
  <sodipodi:namedview
     id="base"
     pagecolor="#ffffff"
     bordercolor="#666666"
     borderopacity="1.0"
     inkscape:pageopacity="0.0"
     inkscape:pageshadow="2"
     inkscape:zoom="3.959798"
     inkscape:cx="38.514957"
     inkscape:cy="-26.758456"
     inkscape:document-units="mm"
     inkscape:current-layer="layer1"
     showgrid="false"
     inkscape:window-width="1920"
     inkscape:window-height="1017"
     inkscape:window-x="-8"
     inkscape:window-y="-8"
     inkscape:window-maximized="1" />
  <metadata
     id="metadata4738">
    <rdf:RDF>
      <cc:Work
         rdf:about="">
        <dc:format>image/svg+xml</dc:format>
        <dc:type
           rdf:resource="http://purl.org/dc/dcmitype/StillImage" />
        <dc:title></dc:title>
      </cc:Work>
    </rdf:RDF>
  </metadata>
  <g
     inkscape:label="Layer 1"
     inkscape:groupmode="layer"
     id="layer1"
     transform="translate(-57.636241,-110.94116)">
    <g
       id="g94"
       transform="matrix(0.26458333,0,0,0.26458333,57.622502,110.94122)"
       style="fill:#000000;fill-rule:evenodd;stroke:none;stroke-width:1">
      <path
         d="M 32.197081,5.7421575 C 31.696743,5.247363 31.103228,4.9999658 30.417993,4.9999658 h -2.530324 v -1.875137 c 0,-0.8591781 -0.30986,-1.5948973 -0.929338,-2.20691784 C 26.33861,0.30589041 25.594412,-2.3972603e-4 24.724279,-2.3972603e-4 H 23.45936 c -0.870132,0 -1.614573,0.30613013603 -2.234051,0.91815068603 C 20.605588,1.5299315 20.295971,2.2656507 20.295971,3.1248288 v 1.875137 h -7.591214 v -1.875137 c 0,-0.8591781 -0.30986,-1.5948973 -0.929338,-2.20691784 C 11.155941,0.30589041 10.411257,-2.3972603e-4 9.5413677,-2.3972603e-4 H 8.2762059 c -0.8698897,0 -1.6145736,0.30613013603 -2.2340515,0.91815068603 C 5.4226765,1.5299315 5.1128162,2.2656507 5.1128162,3.1248288 v 1.875137 H 2.5824926 c -0.6854779,0 -1.2785073,0.2473972 -1.77933084,0.7421917 C 0.30233824,6.236952 0.05192647,6.8230822 0.05192647,7.5000685 V 32.500377 c 0,0.676746 0.25041177,1.262637 0.75123529,1.757671 C 1.3039853,34.752842 1.8970147,35.00024 2.5824926,35.00024 H 30.417507 c 0.685236,0 1.27875,-0.247398 1.779089,-0.742192 0.500823,-0.494795 0.751235,-1.080925 0.751235,-1.757671 V 7.5000685 c 0,-0.677226 -0.250169,-1.2631165 -0.75075,-1.757911 z m -9.370544,-2.617089 c 0,-0.1824315 0.05896,-0.3322603 0.177375,-0.4492466 0.118411,-0.1169863 0.270066,-0.1757192 0.454963,-0.1757192 h 1.264919 c 0.184897,0 0.336066,0.058493 0.454963,0.1757192 0.118412,0.1172261 0.177618,0.2670548 0.177618,0.4492466 V 8.75 c 0,0.1824315 -0.05921,0.3320205 -0.177618,0.4492466 -0.118897,0.1169863 -0.270066,0.1757192 -0.454963,0.1757192 h -1.264919 c -0.184897,0 -0.336552,-0.058493 -0.454963,-0.1757192 C 22.8855,9.0820205 22.826537,8.9324315 22.826537,8.75 Z m -15.182912,0 c 0,-0.1824315 0.059206,-0.3322603 0.1778603,-0.4492466 C 7.9401397,2.5588356 8.0915515,2.5001027 8.2762059,2.5001027 h 1.2651618 c 0.1846544,0 0.3363088,0.058493 0.4547205,0.1757192 C 10.1145,2.793048 10.173949,2.9428767 10.173949,3.1250685 V 8.75 c 0,0.1824315 -0.05921,0.3322603 -0.1778608,0.4492466 C 9.8774338,9.3162329 9.7260221,9.3749658 9.5413677,9.3749658 H 8.2762059 c -0.1846544,0 -0.3363088,-0.058493 -0.4547206,-0.1757192 C 7.7030735,9.0820205 7.643625,8.9324315 7.643625,8.75 Z M 30.417507,32.500137 H 2.5824926 V 12.500034 H 30.417507 Z"
         id="path92"
         inkscape:connector-curvature="0" />
    </g>
  </g>
</svg>
