<?xml version="1.0" encoding="UTF-8" standalone="no"?>
<!-- Created with Inkscape (http://www.inkscape.org/) -->

<svg
   xmlns:dc="http://purl.org/dc/elements/1.1/"
   xmlns:cc="http://creativecommons.org/ns#"
   xmlns:rdf="http://www.w3.org/1999/02/22-rdf-syntax-ns#"
   xmlns:svg="http://www.w3.org/2000/svg"
   xmlns="http://www.w3.org/2000/svg"
   xmlns:sodipodi="http://sodipodi.sourceforge.net/DTD/sodipodi-0.dtd"
   xmlns:inkscape="http://www.inkscape.org/namespaces/inkscape"
   width="1.5313449mm"
   height="1.7501086mm"
   viewBox="0 0 1.5313449 1.7501086"
   version="1.1"
   id="svg8454"
   inkscape:version="0.92.1 r15371"
   sodipodi:docname="lock_icon.svg">
  <defs
     id="defs8448">
    <mask
       id="mask-2"
       fill="white">
      <path
         inkscape:connector-curvature="0"
         id="use5339"
         d="M 5.5810547,2.8938802 H 5.2709961 V 1.9637044 C 5.2709961,0.88108317 4.3899129,0 3.3072917,0 2.2246704,0 1.3435872,0.88108317 1.3435872,1.9637044 V 2.8938802 H 1.0335286 c -0.34235632,0 -0.62011714,0.2777608 -0.62011714,0.6201172 v 2.4804687 c 0,0.3423564 0.27776082,0.6201172 0.62011714,0.6201172 h 4.5475261 c 0.3423563,0 0.6201172,-0.2777608 0.6201172,-0.6201172 V 3.5139974 c 0,-0.3423564 -0.2777609,-0.6201172 -0.6201172,-0.6201172 z m -1.3435873,0 H 2.3771159 V 1.9637044 c 0,-0.5128886 0.4172872,-0.9301758 0.9301758,-0.9301758 0.5128886,0 0.9301757,0.4172872 0.9301757,0.9301758 z"
         style="stroke-width:0.26458332" />
    </mask>
  </defs>
  <sodipodi:namedview
     id="base"
     pagecolor="#ffffff"
     bordercolor="#666666"
     borderopacity="1.0"
     inkscape:pageopacity="0.0"
     inkscape:pageshadow="2"
     inkscape:zoom="15.839192"
     inkscape:cx="16.566604"
     inkscape:cy="4.7626702"
     inkscape:document-units="mm"
     inkscape:current-layer="Solid/lock"
     showgrid="false"
     inkscape:window-width="1920"
     inkscape:window-height="1017"
     inkscape:window-x="-8"
     inkscape:window-y="-8"
     inkscape:window-maximized="1" />
  <metadata
     id="metadata8451">
    <rdf:RDF>
      <cc:Work
         rdf:about="">
        <dc:format>image/svg+xml</dc:format>
        <dc:type
           rdf:resource="http://purl.org/dc/dcmitype/StillImage" />
        <dc:title></dc:title>
      </cc:Work>
    </rdf:RDF>
  </metadata>
  <g
     inkscape:label="Layer 1"
     inkscape:groupmode="layer"
     id="layer1"
     transform="translate(-100.004,-156.56859)">
    <g
       id="Solid/lock"
       transform="matrix(0.26458333,0,0,0.26458333,100.84677,155.4661)">
      <mask
         id="mask8442"
         fill="white">
        <path
           inkscape:connector-curvature="0"
           id="use8440"
           d="M 5.5810547,2.8938802 H 5.2709961 V 1.9637044 C 5.2709961,0.88108317 4.3899129,0 3.3072917,0 2.2246704,0 1.3435872,0.88108317 1.3435872,1.9637044 V 2.8938802 H 1.0335286 c -0.34235632,0 -0.62011714,0.2777608 -0.62011714,0.6201172 v 2.4804687 c 0,0.3423564 0.27776082,0.6201172 0.62011714,0.6201172 h 4.5475261 c 0.3423563,0 0.6201172,-0.2777608 0.6201172,-0.6201172 V 3.5139974 c 0,-0.3423564 -0.2777609,-0.6201172 -0.6201172,-0.6201172 z m -1.3435873,0 H 2.3771159 V 1.9637044 c 0,-0.5128886 0.4172872,-0.9301758 0.9301758,-0.9301758 0.5128886,0 0.9301757,0.4172872 0.9301757,0.9301758 z"
           style="stroke-width:0.26458332" />
      </mask>
      <path
         inkscape:connector-curvature="0"
         id="Mask"
         d="M 1.9823862,7.0607595 H 1.6723276 V 6.1305837 c 0,-1.0826212 -0.8810832,-1.9637044 -1.9637044,-1.9637044 -1.0826213,0 -1.9637045,0.8810832 -1.9637045,1.9637044 v 0.9301758 h -0.3100586 c -0.3423563,0 -0.6201171,0.2777608 -0.6201171,0.6201172 v 2.4804683 c 0,0.342357 0.2777608,0.620118 0.6201171,0.620118 h 4.5475261 c 0.3423563,0 0.6201172,-0.277761 0.6201172,-0.620118 V 7.6808767 c 0,-0.3423564 -0.2777609,-0.6201172 -0.6201172,-0.6201172 z m -1.3435873,0 H -1.2215526 V 6.1305837 c 0,-0.5128886 0.4172872,-0.9301758 0.9301758,-0.9301758 0.5128886,0 0.9301757,0.4172872 0.9301757,0.9301758 z"
         style="fill:#000000;fill-rule:nonzero;stroke-width:0.26458332" />
    </g>
  </g>
</svg>
