<?xml version="1.0" encoding="UTF-8" standalone="no"?>
<!-- Created with Inkscape (http://www.inkscape.org/) -->

<svg
   xmlns:dc="http://purl.org/dc/elements/1.1/"
   xmlns:cc="http://creativecommons.org/ns#"
   xmlns:rdf="http://www.w3.org/1999/02/22-rdf-syntax-ns#"
   xmlns:svg="http://www.w3.org/2000/svg"
   xmlns="http://www.w3.org/2000/svg"
   xmlns:sodipodi="http://sodipodi.sourceforge.net/DTD/sodipodi-0.dtd"
   xmlns:inkscape="http://www.inkscape.org/namespaces/inkscape"
   width="22.754166mm"
   height="21.695833mm"
   viewBox="0 0 22.754166 21.695833"
   version="1.1"
   id="svg4593"
   inkscape:version="0.92.1 r15371"
   sodipodi:docname="small_hand_logo.svg">
  <defs
     id="defs4587" />
  <sodipodi:namedview
     id="base"
     pagecolor="#ffffff"
     bordercolor="#666666"
     borderopacity="1.0"
     inkscape:pageopacity="0.0"
     inkscape:pageshadow="2"
     inkscape:zoom="0.98994949"
     inkscape:cx="-8.6771013"
     inkscape:cy="-22.459957"
     inkscape:document-units="mm"
     inkscape:current-layer="layer1"
     showgrid="false"
     inkscape:window-width="1920"
     inkscape:window-height="1017"
     inkscape:window-x="-8"
     inkscape:window-y="-8"
     inkscape:window-maximized="1" />
  <metadata
     id="metadata4590">
    <rdf:RDF>
      <cc:Work
         rdf:about="">
        <dc:format>image/svg+xml</dc:format>
        <dc:type
           rdf:resource="http://purl.org/dc/dcmitype/StillImage" />
        <dc:title></dc:title>
      </cc:Work>
    </rdf:RDF>
  </metadata>
  <g
     inkscape:label="Layer 1"
     inkscape:groupmode="layer"
     id="layer1"
     transform="translate(-62.70625,-109.25923)">
    <g
       id="g4567"
       transform="matrix(0.26458333,0,0,0.26458333,23.944792,97.485268)">
      <g
         transform="translate(148,46)"
         id="Logo">
        <ellipse
           ry="39.5"
           rx="41.5"
           cy="39.5"
           cx="41.5"
           id="Oval-2"
           style="fill:#14448c;stroke:#498ccc;stroke-width:3" />
        <ellipse
           ry="31"
           rx="33"
           cy="39"
           cx="42"
           id="ellipse50"
           style="fill:#498ccc;stroke:#498ccc;stroke-width:8" />
        <g
           transform="translate(13,22)"
           id="Hand">
          <path
             transform="rotate(90,31,18.5)"
             id="Path"
             d="m 30.999818,-12 c -2.278431,0 -4.153804,1.924656 -4.153804,4.255813 v 1.5294327 c -0.7391,-0.6825189 -1.704099,-1.1082846 -2.769203,-1.1082846 -1.327971,0 -2.52842,0.6492385 -3.288428,1.662427 -0.54048,0.7150546 -0.865376,1.6075056 -0.865376,2.5712203 V 3.8706358 C 19.185637,3.1862373 18.219739,2.7623512 17.153804,2.7623512 14.873711,2.7623512 13,4.6852836 13,7.0181642 13,16.371739 13,25.690983 13,35.035614 13,42.715654 19.15926,49 26.672939,49 h 8.653759 C 42.84716,49 48.999636,42.715157 48.999636,35.035614 V 24.595537 c 4.85e-4,-0.01489 4.85e-4,-0.02979 0,-0.04398 V 23.531938 13.402245 c 0,-2.331164 -1.869697,-4.233654 -4.153804,-4.233654 -1.059982,0 -2.032872,0.4091042 -2.769202,1.086119 V -1.9364209 c 0,-2.3311571 -1.869697,-4.255813 -4.153805,-4.255813 -1.059981,0 -2.032872,0.4312699 -2.769203,1.1082846 v -2.6598831 c 0,-2.3328806 -1.875234,-4.2558126 -4.153804,-4.2558126 z"
             inkscape:connector-curvature="0"
             style="fill:#ffffff" />
          <path
             transform="rotate(90,31.5,19.5)"
             id="Shape"
             d="m 31.5,-10 c 1.42361,0 2.583333,1.3015749 2.583333,2.8780305 v 5.8909688 c -0.0065,0.044825 -0.0065,0.090068 0,0.1349077 v 25.137812 c -0.0065,0.380116 0.304575,0.729725 0.645834,0.729725 0.341257,0 0.650677,-0.349609 0.645833,-0.729725 V -1.1860315 c 4.52e-4,-0.014966 4.52e-4,-0.030004 0,-0.044969 0,-1.5782112 1.159787,-2.8780306 2.583333,-2.8780306 1.431361,0 2.583334,1.2998194 2.583334,2.8780306 V 16.711728 c -0.0065,0.04461 -0.0065,0.09008 0,0.134908 v 7.195083 c -0.0065,0.380116 0.304575,0.729725 0.645833,0.729725 0.341258,0 0.650677,-0.349609 0.645833,-0.729725 v -7.285022 c 4.52e-4,-0.01511 4.52e-4,-0.03022 0,-0.04461 v -2.383369 c 0,-1.57824 1.159852,-2.855553 2.583334,-2.855553 1.431359,0 2.583333,1.277313 2.583333,2.855553 V 25.63845 c -0.0065,0.04461 -0.0065,0.09008 0,0.134907 V 36.273709 C 47,43.276748 41.849415,49 35.536458,49 H 27.463542 C 21.157495,49 16,43.276245 16,36.273709 c 5.16e-4,-9.479226 0,-18.940182 0,-28.4205661 0,-1.5764556 1.161337,-2.8780306 2.583333,-2.8780306 1.421995,0 2.583334,1.2998194 2.583334,2.8780306 V 24.042079 c 0,1.109193 1.291537,1.143154 1.291537,0 V 7.8531789 -2.3998049 c 0,-0.6470316 0.188389,-1.2484105 0.524804,-1.7313152 0.469909,-0.6827696 1.226179,-1.1242307 2.058529,-1.1242307 1.42361,0 2.583334,1.2790903 2.583334,2.8555459 -0.0065,0.052236 -0.0065,0.1051416 0,0.1573923 V 24.042079 c -0.0065,0.380116 0.304575,0.729797 0.645833,0.729797 0.341258,0 0.650677,-0.349681 0.645833,-0.729797 V -2.2648972 c 0,-0.022449 0,-0.044969 0,-0.067418 v -4.7892227 c 0,-1.5782112 1.159788,-2.8780305 2.583334,-2.8780305 z"
             inkscape:connector-curvature="0"
             style="fill:#3c5172" />
          <polygon
             points="24,15.875388 18.286081,20.268026 20.18034,27 14,23.214873 7.8196601,27 9.7139186,20.268026 4,15.875388 11.351056,15.499926 14,9 16.648944,15.499926 "
             id="Star"
             style="fill:#f5f0f2" />
        </g>
      </g>
      <g
         id="g4549">
        <path
           style="fill:#ccd1d6;fill-opacity:0.78823529;stroke:#4c8dca;stroke-width:0.70656782;stroke-opacity:1"
           d="m 180.61085,118.56672 c -13.94134,-3.66863 -24.73303,-15.11768 -26.9204,-28.560229 -3.3669,-20.691504 13.9199,-39.567797 36.23596,-39.567797 10.05539,0 18.49887,3.298681 25.70997,10.044316 7.42044,6.941454 10.92041,14.835717 10.8841,24.549314 -0.034,9.098409 -2.88587,16.135866 -9.34306,23.055556 -8.87948,9.5155 -23.88562,13.81579 -36.56657,10.47884 z m 19.77255,-15.63479 c 0.98532,-1.25262 1.36404,-2.47154 1.09768,-3.532835 -0.40234,-1.603026 -0.33592,-1.620358 6.20966,-1.620358 5.67464,0 6.79478,-0.197166 7.86999,-1.385264 0.82766,-0.914555 1.14654,-2.115004 0.93845,-3.532839 -0.27127,-1.848257 -0.0941,-2.147575 1.27106,-2.147575 2.51293,0 3.88055,-0.769791 4.56474,-2.569353 0.95104,-2.501411 -0.33038,-5.155658 -2.71977,-5.633535 -1.72358,-0.344716 -1.95958,-0.674609 -1.70815,-2.387723 0.47063,-3.206606 -1.84806,-4.953881 -6.57397,-4.953881 -3.78538,0 -3.88687,-0.0507 -3.46517,-1.730862 0.32392,-1.290592 -0.0357,-2.20095 -1.41366,-3.578944 l -1.84808,-1.84808 -16.767,0.222746 c -16.16452,0.214742 -16.86275,0.282277 -19.43175,1.8795 -1.46562,0.911215 -3.53233,2.793029 -4.59269,4.18181 -1.78117,2.332832 -1.9463,3.113397 -2.16909,10.253533 -0.31039,9.947395 0.0769,11.765466 3.26305,15.318433 3.92045,4.371787 6.22213,4.910707 21.12677,4.946697 l 12.84358,0.031 z"
           id="path4542"
           inkscape:connector-curvature="0" />
      </g>
    </g>
  </g>
</svg>
